<svg width="20" height="18" viewBox="0 0 20 18" fill="none" xmlns="http://www.w3.org/2000/svg">
<path d="M12.0771 1.01392C12.8668 1.01392 13.5387 1.22445 14.1025 1.63989L14.3379 1.83032C14.946 2.37126 15.2441 3.02625 15.2441 3.80786C15.2441 3.86354 15.2398 3.90595 15.2334 3.93774L15.2119 4.00317C15.1797 4.06041 15.1514 4.13533 15.1572 4.21997C15.1637 4.31153 15.2074 4.38709 15.2676 4.44067C15.4018 4.5601 15.566 4.54189 15.6904 4.48657C15.7314 4.46836 15.8098 4.45145 15.9414 4.45142C16.7313 4.45142 17.4038 4.66177 17.9678 5.07739L18.2031 5.26782C18.8111 5.80872 19.1094 6.46385 19.1094 7.24536C19.1094 8.02687 18.8111 8.68201 18.2031 9.2229C17.5938 9.76488 16.844 10.0393 15.9414 10.0393C15.6762 10.0393 15.4309 10.0161 15.2051 9.97095L14.9854 9.91821C14.6995 9.83793 14.4285 9.71704 14.1719 9.55591L14.0352 9.47095L13.915 9.57739L9.90527 13.1438L9.75391 13.2786L9.87988 13.4368C10.0595 13.6631 10.1931 13.9005 10.2812 14.1487C10.3686 14.3948 10.4141 14.6713 10.4141 14.9797C10.4141 15.6637 10.1853 16.2508 9.7207 16.7493L9.50684 16.9573C8.89754 17.4991 8.1486 17.7737 7.24609 17.7737C6.45643 17.7737 5.78456 17.5632 5.2207 17.1477L4.98535 16.9573C4.3772 16.4163 4.0791 15.7613 4.0791 14.9797C4.0791 14.9241 4.08345 14.8816 4.08984 14.8499L4.1123 14.7844C4.14448 14.7272 4.17187 14.6523 4.16602 14.5676C4.16119 14.4989 4.13569 14.4389 4.09766 14.3909L4.05566 14.3469L4.00391 14.3088C3.91595 14.2545 3.81993 14.2489 3.73242 14.2678L3.63281 14.301C3.59183 14.3192 3.51348 14.3362 3.38184 14.3362C2.59192 14.3362 1.91944 14.1259 1.35547 13.7102L1.12109 13.5198C0.512935 12.9788 0.213867 12.3239 0.213867 11.5422C0.213867 10.8583 0.442632 10.2712 0.907227 9.77271L1.12109 9.5647C1.73038 9.02285 2.47935 8.74829 3.38184 8.74829C3.73555 8.74831 4.05374 8.7896 4.33789 8.86938C4.62369 8.94966 4.89474 9.07059 5.15137 9.23169L5.28809 9.31665L5.4082 9.21021L9.41797 5.6438L9.56934 5.50903L9.44336 5.35083C9.26373 5.12448 9.13013 4.88708 9.04199 4.63892C8.95461 4.39279 8.91016 4.11625 8.91016 3.80786C8.91016 3.12393 9.13801 2.53679 9.60254 2.03833L9.81641 1.83032C10.4257 1.28841 11.1746 1.01392 12.0771 1.01392Z" fill="#FFCA72" stroke="white" stroke-width="0.428571"/>
</svg>
