<svg width="57" height="57" viewBox="0 0 57 57" fill="none" xmlns="http://www.w3.org/2000/svg">
<g id="dog">
<rect width="57" height="57" fill="#2D0100"/>
<g id="Group">
<path id="Vector" d="M47.7568 39.0697C47.7568 48.1687 40.1698 52.7206 30.8108 52.7206C21.4519 52.7206 13.8649 48.1687 13.8649 39.0697C13.8649 29.9706 21.4519 20.7115 30.8108 20.7115C40.1698 20.7115 47.7568 29.9706 47.7568 39.0697Z" fill="#FFCA72" stroke="white" stroke-width="2.31081"/>
<path id="Vector_2" d="M27.0451 30.1261C28.085 30.1261 28.928 29.2831 28.928 28.2432C28.928 27.2033 28.085 26.3604 27.0451 26.3604C26.0052 26.3604 25.1622 27.2033 25.1622 28.2432C25.1622 29.2831 26.0052 30.1261 27.0451 30.1261Z" fill="black"/>
<path id="Vector_3" d="M34.5767 30.1261C35.6166 30.1261 36.4596 29.2831 36.4596 28.2432C36.4596 27.2033 35.6166 26.3604 34.5767 26.3604C33.5368 26.3604 32.6938 27.2033 32.6938 28.2432C32.6938 29.2831 33.5368 30.1261 34.5767 30.1261Z" fill="black"/>
<path id="Vector_4" d="M30.8109 36.7163C30.8109 38.2762 31.2816 41.8942 27.9866 41.8942C26.4267 41.8942 25.1622 40.6298 25.1622 39.0699" stroke="black" stroke-width="3.08108" stroke-linecap="round" stroke-linejoin="round"/>
<path id="Vector_5" d="M30.8343 36.7163C30.8343 38.2762 30.3635 41.8942 33.6586 41.8942C35.2184 41.8942 36.4829 40.6298 36.4829 39.0699" stroke="black" stroke-width="3.08108" stroke-linecap="round" stroke-linejoin="round"/>
<path id="Vector_6" d="M32.6936 36.4808C32.6936 37.1307 30.8107 38.1283 30.8107 38.1283C30.8107 38.1283 28.9278 37.1307 28.9278 36.4808C28.9278 35.8308 29.3985 35.304 30.8107 35.304C32.2229 35.304 32.6936 35.8308 32.6936 36.4808Z" stroke="black" stroke-width="3.08108" stroke-linejoin="round"/>
</g>
<ellipse id="Ellipse 6" cx="24.6486" cy="10.7838" rx="6.16216" ry="7.7027" fill="#D9D9D9"/>
<ellipse id="Ellipse 8" cx="12.4854" cy="20.6429" rx="4.31351" ry="5.39189" transform="rotate(-27.6533 12.4854 20.6429)" fill="#D9D9D9"/>
<ellipse id="Ellipse 9" cx="49.4583" cy="20.6428" rx="4.31351" ry="5.39189" transform="rotate(27.65 49.4583 20.6428)" fill="#D9D9D9"/>
<ellipse id="Ellipse 7" cx="38.5135" cy="10.7838" rx="6.16216" ry="7.7027" fill="#D9D9D9"/>
</g>
</svg>
