<svg width="140" height="84" viewBox="0 0 140 84" fill="none" xmlns="http://www.w3.org/2000/svg">
<rect width="57" height="57" transform="translate(83 13)" fill="#2D0100"/>
<path d="M130.757 52.0697C130.757 61.1687 123.17 65.7206 113.811 65.7206C104.452 65.7206 96.8649 61.1687 96.8649 52.0697C96.8649 42.9706 104.452 33.7115 113.811 33.7115C123.17 33.7115 130.757 42.9706 130.757 52.0697Z" fill="#FFCA72" stroke="white" stroke-width="2.31081"/>
<path d="M110.045 43.1261C111.085 43.1261 111.928 42.2831 111.928 41.2432C111.928 40.2033 111.085 39.3604 110.045 39.3604C109.005 39.3604 108.162 40.2033 108.162 41.2432C108.162 42.2831 109.005 43.1261 110.045 43.1261Z" fill="black"/>
<path d="M117.577 43.1261C118.617 43.1261 119.46 42.2831 119.46 41.2432C119.46 40.2033 118.617 39.3604 117.577 39.3604C116.537 39.3604 115.694 40.2033 115.694 41.2432C115.694 42.2831 116.537 43.1261 117.577 43.1261Z" fill="black"/>
<path d="M113.811 49.7163C113.811 51.2762 114.282 54.8942 110.987 54.8942C109.427 54.8942 108.162 53.6298 108.162 52.0699" stroke="black" stroke-width="3.08108" stroke-linecap="round" stroke-linejoin="round"/>
<path d="M113.834 49.7163C113.834 51.2762 113.364 54.8942 116.659 54.8942C118.218 54.8942 119.483 53.6298 119.483 52.0699" stroke="black" stroke-width="3.08108" stroke-linecap="round" stroke-linejoin="round"/>
<path d="M115.694 49.4808C115.694 50.1307 113.811 51.1283 113.811 51.1283C113.811 51.1283 111.928 50.1307 111.928 49.4808C111.928 48.8308 112.399 48.304 113.811 48.304C115.223 48.304 115.694 48.8308 115.694 49.4808Z" stroke="black" stroke-width="3.08108" stroke-linejoin="round"/>
<ellipse cx="107.649" cy="23.7838" rx="6.16216" ry="7.7027" fill="#D9D9D9"/>
<ellipse cx="95.4854" cy="33.6429" rx="4.31351" ry="5.39189" transform="rotate(-27.6533 95.4854 33.6429)" fill="#D9D9D9"/>
<ellipse cx="132.458" cy="33.6428" rx="4.31351" ry="5.39189" transform="rotate(27.65 132.458 33.6428)" fill="#D9D9D9"/>
<ellipse cx="121.514" cy="23.7838" rx="6.16216" ry="7.7027" fill="#D9D9D9"/>
<path d="M13.6289 23H10.8984C10.4375 23 10.0586 22.9883 9.76172 22.9648C9.46484 22.9336 9.24219 22.8594 9.09375 22.7422C8.95312 22.625 8.88281 22.4297 8.88281 22.1562C8.88281 22.0312 8.89844 21.8828 8.92969 21.7109C9.3125 19.5312 9.52344 17.418 9.5625 15.3711C9.5625 15.0508 9.41797 14.8125 9.12891 14.6562C8.83984 14.4922 8.52344 14.4102 8.17969 14.4102C7.83594 14.4102 7.51953 14.4883 7.23047 14.6445C6.94922 14.8008 6.80859 15.0391 6.80859 15.3594V15.3945C6.87109 17.3242 7.10547 19.4297 7.51172 21.7109C7.54297 21.8906 7.55859 22.0469 7.55859 22.1797C7.55859 22.4453 7.48828 22.6367 7.34766 22.7539C7.20703 22.8711 6.98828 22.9414 6.69141 22.9648C6.39453 22.9883 6.01562 23 5.55469 23H2.82422C2.17578 23 1.71094 22.8164 1.42969 22.4492C1.15625 22.0742 0.996094 21.5156 0.949219 20.7734C0.839844 19.25 0.785156 17.7969 0.785156 16.4141C0.785156 13.6641 0.964844 11.0312 1.32422 8.51562C1.44141 7.73437 1.68359 7.15234 2.05078 6.76953C2.42578 6.38672 2.89453 6.19531 3.45703 6.19531H5.61328C5.97266 6.19531 6.24609 6.28125 6.43359 6.45312C6.73828 6.75 6.89062 7.28125 6.89062 8.04688C6.88281 8.67969 6.86719 9.26562 6.84375 9.80469C6.82031 10.3906 6.80078 11.0273 6.78516 11.7148C6.78516 11.918 6.92969 12.0742 7.21875 12.1836C7.50781 12.2852 7.82422 12.3359 8.16797 12.3359C8.51172 12.3359 8.82812 12.2812 9.11719 12.1719C9.40625 12.0625 9.55078 11.8945 9.55078 11.668C9.53516 10.918 9.50781 10.2383 9.46875 9.62891C9.42969 9.11328 9.40234 8.55859 9.38672 7.96484C9.38672 7.66016 9.41797 7.37109 9.48047 7.09766C9.62891 6.49609 10.0195 6.19531 10.6523 6.19531H12.8203C13.3828 6.19531 13.8477 6.38672 14.2148 6.76953C14.5898 7.15234 14.8398 7.73437 14.9648 8.51562C15.3867 11.2344 15.5977 14.0859 15.5977 17.0703C15.5977 18.2578 15.5586 19.4922 15.4805 20.7734C15.4414 21.5156 15.2852 22.0742 15.0117 22.4492C14.7383 22.8164 14.2773 23 13.6289 23ZM24.5859 13.3555C24.8438 13.3555 25.082 13.2969 25.3008 13.1797C25.5195 13.0547 25.6289 12.8672 25.6289 12.6172C25.6289 11.875 25.5703 11.2578 25.4531 10.7656C25.3438 10.2734 25.207 9.90625 25.043 9.66406C24.8789 9.42188 24.7188 9.30078 24.5625 9.30078C24.4141 9.30078 24.2539 9.42578 24.082 9.67578C23.918 9.92578 23.7773 10.2969 23.6602 10.7891C23.5508 11.2812 23.4961 11.8945 23.4961 12.6289C23.4961 12.8633 23.6094 13.043 23.8359 13.168C24.0703 13.293 24.3203 13.3555 24.5859 13.3555ZM28.9102 23C28.0664 23 27.4023 22.9102 26.918 22.7305C26.4336 22.5508 26.0898 22.2734 25.8867 21.8984C25.6836 21.5156 25.582 21.0234 25.582 20.4219C25.582 20.1797 25.6016 19.8516 25.6406 19.4375C25.7031 18.6875 25.7461 17.4922 25.7695 15.8516C25.7539 15.625 25.625 15.4531 25.3828 15.3359C25.1406 15.2188 24.8672 15.1602 24.5625 15.1602C24.2578 15.1602 23.9805 15.2188 23.7305 15.3359C23.4883 15.4531 23.3594 15.625 23.3438 15.8516C23.3672 17.4922 23.4102 18.6875 23.4727 19.4375C23.5117 19.8516 23.5312 20.1914 23.5312 20.457C23.5312 21.0508 23.4297 21.5352 23.2266 21.9102C23.0234 22.2852 22.6797 22.5625 22.1953 22.7422C21.7188 22.9141 21.0586 23 20.2148 23C19.3242 23 18.6328 22.9062 18.1406 22.7188C17.6484 22.5312 17.3047 22.2617 17.1094 21.9102C16.9141 21.5508 16.8164 21.125 16.8164 20.6328C16.8164 20.2969 16.8477 19.9336 16.9102 19.543C16.9727 19.1445 17.0508 18.7227 17.1445 18.2773L17.4375 16.8008C17.6328 15.7852 17.8438 14.7734 18.0703 13.7656C18.3047 12.75 18.5859 11.7891 18.9141 10.8828C19.2422 9.97656 19.6406 9.17188 20.1094 8.46875C20.5859 7.76562 21.1641 7.21094 21.8438 6.80469C22.5312 6.39844 23.3516 6.19531 24.3047 6.19531H24.8203C25.7734 6.19531 26.5898 6.40234 27.2695 6.81641C27.9492 7.22266 28.5273 7.77734 29.0039 8.48047C29.4805 9.18359 29.8828 9.98828 30.2109 10.8945C30.5391 11.8008 30.8164 12.7617 31.043 13.7773C31.2773 14.7852 31.4922 15.8008 31.6875 16.8242C31.7812 17.3164 31.875 17.793 31.9688 18.2539C32.0703 18.7148 32.1523 19.1445 32.2148 19.543C32.2773 19.9336 32.3086 20.2969 32.3086 20.6328C32.3086 21.125 32.2109 21.5508 32.0156 21.9102C31.8203 22.2617 31.4766 22.5312 30.9844 22.7188C30.4922 22.9062 29.8008 23 28.9102 23ZM37.6055 23H35.3672C34.7188 23 34.2617 22.8164 33.9961 22.4492C33.7383 22.0742 33.5938 21.5156 33.5625 20.7734C33.4531 18.9844 33.3984 17.2344 33.3984 15.5234C33.3984 13.2656 33.4961 10.9297 33.6914 8.51562C33.7227 8.09375 33.8242 7.70703 33.9961 7.35547C34.1758 7.00391 34.4219 6.72266 34.7344 6.51172C35.0547 6.30078 35.4414 6.19531 35.8945 6.19531H40.8281C41.7734 6.19531 42.6172 6.375 43.3594 6.73438C44.1016 7.08594 44.7305 7.55469 45.2461 8.14062C45.7617 8.71875 46.1562 9.36719 46.4297 10.0859C46.7109 10.7969 46.8555 11.5234 46.8633 12.2656C46.8633 13.2188 46.6562 14.0078 46.2422 14.6328C45.8281 15.2578 45.2812 15.7266 44.6016 16.0391C43.9297 16.3438 43.1953 16.5039 42.3984 16.5195C41.9453 16.5195 41.5586 16.4766 41.2383 16.3906C40.918 16.3047 40.6602 16.2227 40.4648 16.1445C40.2773 16.0586 40.1328 16.0156 40.0312 16.0156C39.9219 16.0156 39.8672 16.1094 39.8672 16.2969C39.8672 16.7344 40.1445 18.5352 40.6992 21.6992L40.7227 21.9219C40.7227 22.2656 40.5664 22.5156 40.2539 22.6719C39.9492 22.8203 39.5586 22.9141 39.082 22.9531C38.6055 22.9844 38.1133 23 37.6055 23ZM40.5586 13.8359C40.957 13.8359 41.2969 13.5547 41.5781 12.9922C41.8594 12.4297 42 11.8047 42 11.1172C42 10.625 41.9102 10.1523 41.7305 9.69922C41.5508 9.23828 41.2539 8.86328 40.8398 8.57422C40.4336 8.27734 39.8828 8.12891 39.1875 8.12891C39.1406 8.12891 39.1133 8.14453 39.1055 8.17578C39.0977 8.19922 39.0938 8.23828 39.0938 8.29297C39.1094 9.37109 39.1758 10.5234 39.293 11.75C39.4258 13.0234 39.7305 13.707 40.207 13.8008C40.332 13.8242 40.4492 13.8359 40.5586 13.8359ZM52.207 23H49.9688C49.3203 23 48.8633 22.8164 48.5977 22.4492C48.3398 22.0742 48.1953 21.5156 48.1641 20.7734C48.0547 18.9844 48 17.2344 48 15.5234C48 13.2656 48.0977 10.9297 48.293 8.51562C48.3242 8.09375 48.4258 7.70703 48.5977 7.35547C48.7773 7.00391 49.0234 6.72266 49.3359 6.51172C49.6562 6.30078 50.043 6.19531 50.4961 6.19531H55.4297C56.375 6.19531 57.2188 6.375 57.9609 6.73438C58.7031 7.08594 59.332 7.55469 59.8477 8.14062C60.3633 8.71875 60.7578 9.36719 61.0312 10.0859C61.3125 10.7969 61.457 11.5234 61.4648 12.2656C61.4648 13.2188 61.2578 14.0078 60.8438 14.6328C60.4297 15.2578 59.8828 15.7266 59.2031 16.0391C58.5312 16.3438 57.7969 16.5039 57 16.5195C56.5469 16.5195 56.1602 16.4766 55.8398 16.3906C55.5195 16.3047 55.2617 16.2227 55.0664 16.1445C54.8789 16.0586 54.7344 16.0156 54.6328 16.0156C54.5234 16.0156 54.4688 16.1094 54.4688 16.2969C54.4688 16.7344 54.7461 18.5352 55.3008 21.6992L55.3242 21.9219C55.3242 22.2656 55.168 22.5156 54.8555 22.6719C54.5508 22.8203 54.1602 22.9141 53.6836 22.9531C53.207 22.9844 52.7148 23 52.207 23ZM55.1602 13.8359C55.5586 13.8359 55.8984 13.5547 56.1797 12.9922C56.4609 12.4297 56.6016 11.8047 56.6016 11.1172C56.6016 10.625 56.5117 10.1523 56.332 9.69922C56.1523 9.23828 55.8555 8.86328 55.4414 8.57422C55.0352 8.27734 54.4844 8.12891 53.7891 8.12891C53.7422 8.12891 53.7148 8.14453 53.707 8.17578C53.6992 8.19922 53.6953 8.23828 53.6953 8.29297C53.7109 9.37109 53.7773 10.5234 53.8945 11.75C54.0273 13.0234 54.332 13.707 54.8086 13.8008C54.9336 13.8242 55.0508 13.8359 55.1602 13.8359ZM67.0195 23H64.7109C64.0781 23 63.625 22.8203 63.3516 22.4609C63.0859 22.1016 62.9336 21.5586 62.8945 20.832C62.6836 18.2539 62.5781 15.8164 62.5781 13.5195C62.5781 11.9961 62.625 10.3086 62.7188 8.45703C62.7734 7.69141 62.9961 7.125 63.3867 6.75781C63.7852 6.38281 64.2578 6.19531 64.8047 6.19531H66.9258C67.4727 6.19531 67.9414 6.38281 68.332 6.75781C68.7305 7.125 68.957 7.69141 69.0117 8.45703C69.1055 10.3086 69.1523 11.9961 69.1523 13.5195C69.1523 15.8164 69.0469 18.2539 68.8359 20.832C68.7969 21.5586 68.6406 22.1016 68.3672 22.4609C68.1016 22.8203 67.6523 23 67.0195 23ZM76.4766 23C75.0156 23 73.9062 22.875 73.1484 22.625C72.3906 22.375 71.8633 21.9414 71.5664 21.3242C71.2773 20.6992 71.1094 19.8398 71.0625 18.7461C71.0156 17.8008 70.9922 16.8047 70.9922 15.7578C70.9922 14.2578 71.0273 12.8242 71.0977 11.457C71.168 10.082 71.2461 9.10156 71.332 8.51562C71.4492 7.73437 71.6914 7.15234 72.0586 6.76953C72.4336 6.38672 72.9023 6.19531 73.4648 6.19531H76.0781C76.3594 6.19531 76.5781 6.26172 76.7344 6.39453C76.8984 6.51953 77.0117 6.6875 77.0742 6.89844C77.1367 7.10156 77.168 7.32813 77.168 7.57812C77.168 7.96094 77.1211 8.34375 77.0273 8.72656C76.793 9.85938 76.6758 11.1328 76.6758 12.5469C76.6758 13.6172 76.7539 14.875 76.9102 16.3203C77.0508 17.4609 77.4023 18.0312 77.9648 18.0312C78.4492 18.0312 79.0742 17.6406 79.8398 16.8594C80.6445 16.0703 81.3008 15.6758 81.8086 15.6758C82.3086 15.6758 82.6562 15.9805 82.8516 16.5898C83.0469 17.1992 83.1445 18.0469 83.1445 19.1328C83.1445 19.7266 83.1211 20.2266 83.0742 20.6328C83.0273 21.0312 82.8945 21.3789 82.6758 21.6758C82.4648 21.9727 82.1211 22.2188 81.6445 22.4141C80.6914 22.8047 78.9688 23 76.4766 23ZM87.2344 23.0117C86.7031 23.0117 86.1914 22.9531 85.6992 22.8359C85.2148 22.7188 84.8164 22.543 84.5039 22.3086C84.1914 22.0664 84.0352 21.7656 84.0352 21.4062C84.0664 20.8672 84.1758 20.2969 84.3633 19.6953C84.4805 19.2969 84.5898 18.8594 84.6914 18.3828C84.793 17.9062 84.8438 17.375 84.8438 16.7891V16.332C84.8438 15.8398 84.7539 15.4414 84.5742 15.1367C84.4023 14.8242 84.1719 14.5625 83.8828 14.3516C83.6016 14.1328 83.293 13.9297 82.957 13.7422C82.5195 13.5 82.0938 13.207 81.6797 12.8633C81.2656 12.5195 80.9219 12.0469 80.6484 11.4453C80.375 10.8438 80.2305 10.0352 80.2148 9.01953C80.2148 8.21484 80.3164 7.61328 80.5195 7.21484C80.7227 6.80859 80.9766 6.53906 81.2812 6.40625C81.5938 6.26562 81.9062 6.19531 82.2188 6.19531H84.7969C85.2031 6.19531 85.5586 6.21484 85.8633 6.25391C86.1758 6.29297 86.418 6.38281 86.5898 6.52344C86.7695 6.65625 86.8594 6.86719 86.8594 7.15625C86.8281 7.76562 86.7266 8.41016 86.5547 9.08984C86.4844 9.43359 86.418 9.77344 86.3555 10.1094C86.293 10.4375 86.2617 10.7539 86.2617 11.0586C86.2617 11.9102 86.3633 12.5508 86.5664 12.9805C86.7695 13.4102 86.9922 13.625 87.2344 13.625C87.4766 13.625 87.6953 13.4102 87.8906 12.9805C88.0938 12.5508 88.1953 11.9102 88.1953 11.0586C88.1953 10.7539 88.1641 10.4375 88.1016 10.1094C88.0391 9.77344 87.9727 9.43359 87.9023 9.08984C87.7305 8.41016 87.6289 7.76562 87.5977 7.15625C87.5977 6.86719 87.6836 6.65625 87.8555 6.52344C88.0352 6.38281 88.2773 6.29297 88.582 6.25391C88.8945 6.21484 89.2539 6.19531 89.6602 6.19531H92.25C92.5625 6.19531 92.8711 6.26562 93.1758 6.40625C93.4805 6.53906 93.7344 6.80859 93.9375 7.21484C94.1406 7.61328 94.2422 8.21484 94.2422 9.01953C94.2266 10.0352 94.082 10.8438 93.8086 11.4453C93.5352 12.0469 93.1875 12.5234 92.7656 12.875C92.3516 13.2188 91.9258 13.5117 91.4883 13.7539C91.1523 13.9414 90.8438 14.1445 90.5625 14.3633C90.2812 14.5742 90.0508 14.8359 89.8711 15.1484C89.6992 15.4531 89.6133 15.8477 89.6133 16.332V16.8242C89.6133 17.4102 89.6641 17.9375 89.7656 18.4062C89.8672 18.875 89.9766 19.3086 90.0938 19.707C90.2812 20.3008 90.3906 20.8672 90.4219 21.4062C90.4219 21.7656 90.2656 22.0664 89.9531 22.3086C89.6406 22.543 89.2383 22.7188 88.7461 22.8359C88.2617 22.9531 87.7578 23.0117 87.2344 23.0117ZM7.04297 50.9883H5.63672C4.91016 50.9883 4.21094 50.9336 3.53906 50.8242C2.875 50.707 2.32031 50.4805 1.875 50.1445C1.42969 49.8008 1.17969 49.293 1.125 48.6211C1.01562 47.168 0.933594 45.8945 0.878906 44.8008C0.824219 43.707 0.796875 42.6172 0.796875 41.5312C0.796875 40.0781 0.847656 38.4062 0.949219 36.5156C1.05078 35.2812 1.92578 34.5547 3.57422 34.3359C4.27734 34.2422 4.95312 34.1953 5.60156 34.1953C6.95312 34.1953 7.92188 34.2109 8.50781 34.2422C9.10156 34.2656 9.8125 34.3477 10.6406 34.4883C11.4688 34.6289 11.9609 35.0703 12.1172 35.8125C12.1875 36.1562 12.2227 36.5273 12.2227 36.9258C12.2227 37.4961 12.082 37.8906 11.8008 38.1094C11.5273 38.3281 11.1484 38.4375 10.6641 38.4375C10.2812 38.4375 9.84375 38.3906 9.35156 38.2969C8.85938 38.1953 8.33203 38.0781 7.76953 37.9453C7.49609 37.8906 7.30078 37.8633 7.18359 37.8633C6.83984 37.8633 6.625 37.9883 6.53906 38.2383C6.46094 38.4883 6.42188 38.8203 6.42188 39.2344C6.42188 40.1484 6.43359 40.8242 6.45703 41.2617C6.48047 41.6992 6.55469 41.918 6.67969 41.918C6.75 41.918 6.83594 41.8516 6.9375 41.7188C7.04688 41.5859 7.16797 41.418 7.30078 41.2148C7.47266 40.957 7.66406 40.6914 7.875 40.418C8.09375 40.1367 8.33203 39.8984 8.58984 39.7031C8.85547 39.5 9.14062 39.3984 9.44531 39.3984C9.75781 39.3984 10.0156 39.4961 10.2188 39.6914C10.4297 39.8789 10.5859 40.1289 10.6875 40.4414C10.7891 40.7539 10.8398 41.0859 10.8398 41.4375C10.8398 42.0078 10.6328 42.5312 10.2188 43.0078C9.8125 43.4766 9.19922 43.7734 8.37891 43.8984C8.15234 43.9219 7.95703 43.9336 7.79297 43.9336C7.44141 43.9336 7.17969 43.9102 7.00781 43.8633C6.89844 43.8398 6.80859 43.8281 6.73828 43.8281C6.64453 43.8281 6.58203 43.8633 6.55078 43.9336C6.51953 43.9961 6.50391 44.1289 6.50391 44.332C6.50391 44.5742 6.51562 44.9375 6.53906 45.4219C6.57031 46.1562 6.76172 46.5234 7.11328 46.5234C7.27734 46.5234 7.46484 46.4688 7.67578 46.3594C7.89453 46.2422 8.13672 46.1016 8.40234 45.9375C8.78516 45.6875 9.20312 45.4531 9.65625 45.2344C10.1172 45.0078 10.6133 44.8945 11.1445 44.8945C11.4805 44.8945 11.7422 45.0391 11.9297 45.3281C12.125 45.6094 12.2227 46.1367 12.2227 46.9102C12.2227 47.8555 12.1016 48.6016 11.8594 49.1484C11.625 49.6953 11.2852 50.1016 10.8398 50.3672C10.3945 50.6328 9.85156 50.8047 9.21094 50.8828C8.57031 50.9531 7.84766 50.9883 7.04297 50.9883ZM21.2227 51H20.707C19.8008 51 18.9844 50.7539 18.2578 50.2617C16.8984 49.332 15.7852 47.7539 14.918 45.5273C14.168 43.6055 13.6602 41.5469 13.3945 39.3516C13.2773 38.375 13.2188 37.4219 13.2188 36.4922C13.2188 36.0078 13.3203 35.5977 13.5234 35.2617C13.7266 34.918 14.0742 34.6562 14.5664 34.4766C15.0586 34.2891 15.7422 34.1953 16.6172 34.1953C17.4609 34.1953 18.125 34.2852 18.6094 34.4648C19.0938 34.6445 19.4375 34.9258 19.6406 35.3086C19.8438 35.6836 19.9453 36.1719 19.9453 36.7734C19.9453 37.1172 19.9062 37.6328 19.8281 38.3203C19.6641 39.9297 19.582 41.293 19.582 42.4102C19.582 43.1133 19.6211 43.7773 19.6992 44.4023C19.7773 45.0273 19.9141 45.5352 20.1094 45.9258C20.3125 46.3086 20.5977 46.5 20.9648 46.5C21.332 46.5 21.6172 46.3086 21.8203 45.9258C22.0234 45.5352 22.1641 45.0273 22.2422 44.4023C22.3203 43.7773 22.3594 43.1133 22.3594 42.4102C22.3594 41.2852 22.2773 39.9141 22.1133 38.2969C22.0352 37.6016 21.9961 37.082 21.9961 36.7383C21.9961 36.1445 22.0977 35.6602 22.3008 35.2852C22.5039 34.9102 22.8477 34.6367 23.332 34.4648C23.8164 34.2852 24.4766 34.1953 25.3125 34.1953C26.1719 34.1953 26.8477 34.2812 27.3398 34.4531C27.8398 34.625 28.1953 34.875 28.4062 35.2031C28.6172 35.5312 28.7227 35.9258 28.7227 36.3867V37.0664C28.7227 37.8164 28.6562 38.6797 28.5234 39.6562C28.3906 40.625 28.1875 41.6328 27.9141 42.6797C27.6406 43.7188 27.2969 44.7305 26.8828 45.7148C26.4688 46.6992 25.9844 47.5898 25.4297 48.3867C24.875 49.1758 24.2461 49.8086 23.543 50.2852C22.8398 50.7617 22.0664 51 21.2227 51ZM36.1758 50.9883H34.7695C34.043 50.9883 33.3438 50.9336 32.6719 50.8242C32.0078 50.707 31.4531 50.4805 31.0078 50.1445C30.5625 49.8008 30.3125 49.293 30.2578 48.6211C30.1484 47.168 30.0664 45.8945 30.0117 44.8008C29.957 43.707 29.9297 42.6172 29.9297 41.5312C29.9297 40.0781 29.9805 38.4062 30.082 36.5156C30.1836 35.2812 31.0586 34.5547 32.707 34.3359C33.4102 34.2422 34.0859 34.1953 34.7344 34.1953C36.0859 34.1953 37.0547 34.2109 37.6406 34.2422C38.2344 34.2656 38.9453 34.3477 39.7734 34.4883C40.6016 34.6289 41.0938 35.0703 41.25 35.8125C41.3203 36.1562 41.3555 36.5273 41.3555 36.9258C41.3555 37.4961 41.2148 37.8906 40.9336 38.1094C40.6602 38.3281 40.2812 38.4375 39.7969 38.4375C39.4141 38.4375 38.9766 38.3906 38.4844 38.2969C37.9922 38.1953 37.4648 38.0781 36.9023 37.9453C36.6289 37.8906 36.4336 37.8633 36.3164 37.8633C35.9727 37.8633 35.7578 37.9883 35.6719 38.2383C35.5938 38.4883 35.5547 38.8203 35.5547 39.2344C35.5547 40.1484 35.5664 40.8242 35.5898 41.2617C35.6133 41.6992 35.6875 41.918 35.8125 41.918C35.8828 41.918 35.9688 41.8516 36.0703 41.7188C36.1797 41.5859 36.3008 41.418 36.4336 41.2148C36.6055 40.957 36.7969 40.6914 37.0078 40.418C37.2266 40.1367 37.4648 39.8984 37.7227 39.7031C37.9883 39.5 38.2734 39.3984 38.5781 39.3984C38.8906 39.3984 39.1484 39.4961 39.3516 39.6914C39.5625 39.8789 39.7188 40.1289 39.8203 40.4414C39.9219 40.7539 39.9727 41.0859 39.9727 41.4375C39.9727 42.0078 39.7656 42.5312 39.3516 43.0078C38.9453 43.4766 38.332 43.7734 37.5117 43.8984C37.2852 43.9219 37.0898 43.9336 36.9258 43.9336C36.5742 43.9336 36.3125 43.9102 36.1406 43.8633C36.0312 43.8398 35.9414 43.8281 35.8711 43.8281C35.7773 43.8281 35.7148 43.8633 35.6836 43.9336C35.6523 43.9961 35.6367 44.1289 35.6367 44.332C35.6367 44.5742 35.6484 44.9375 35.6719 45.4219C35.7031 46.1562 35.8945 46.5234 36.2461 46.5234C36.4102 46.5234 36.5977 46.4688 36.8086 46.3594C37.0273 46.2422 37.2695 46.1016 37.5352 45.9375C37.918 45.6875 38.3359 45.4531 38.7891 45.2344C39.25 45.0078 39.7461 44.8945 40.2773 44.8945C40.6133 44.8945 40.875 45.0391 41.0625 45.3281C41.2578 45.6094 41.3555 46.1367 41.3555 46.9102C41.3555 47.8555 41.2344 48.6016 40.9922 49.1484C40.7578 49.6953 40.418 50.1016 39.9727 50.3672C39.5273 50.6328 38.9844 50.8047 38.3438 50.8828C37.7031 50.9531 36.9805 50.9883 36.1758 50.9883ZM54.8672 51.0234C54.6719 51.0234 54.4648 51.0195 54.2461 51.0117C54.0273 51.0039 53.7969 51 53.5547 51H52.7344C52.4141 51 52.1094 50.9688 51.8203 50.9062C51.5312 50.8438 51.2969 50.7109 51.1172 50.5078C50.9375 50.2969 50.8438 49.9805 50.8359 49.5586V49.2656C50.8359 48.7734 50.8555 48.1445 50.8945 47.3789C50.9414 46.5508 50.9648 45.8438 50.9648 45.2578C50.9648 44.3438 50.8242 43.6133 50.543 43.0664C50.332 42.668 50.0547 42.4688 49.7109 42.4688C49.5703 42.4688 49.4336 42.5117 49.3008 42.5977C49.1758 42.6758 49.0703 42.8203 48.9844 43.0312C48.9062 43.2344 48.8672 43.5234 48.8672 43.8984C48.8828 44.7422 48.9375 45.5547 49.0312 46.3359C49.1328 47.1094 49.2422 47.8398 49.3594 48.5273C49.4844 49.3164 49.5469 49.7812 49.5469 49.9219C49.5469 50.2656 49.4258 50.5156 49.1836 50.6719C48.9492 50.8203 48.6289 50.9141 48.2227 50.9531C47.8242 50.9844 47.375 51 46.875 51H44.6367C43.9883 51 43.5312 50.8164 43.2656 50.4492C43 50.0742 42.8516 49.5156 42.8203 48.7734C42.7188 47 42.668 45.2773 42.668 43.6055C42.668 41.3164 42.7617 38.9531 42.9492 36.5156C42.9805 36.0938 43.082 35.707 43.2539 35.3555C43.4336 35.0039 43.6836 34.7227 44.0039 34.5117C44.3242 34.3008 44.7109 34.1953 45.1641 34.1953H50.0977C51.0352 34.1953 51.8672 34.3398 52.5938 34.6289C53.3281 34.918 53.9453 35.3047 54.4453 35.7891C54.9453 36.2656 55.3242 36.7969 55.582 37.3828C55.8477 37.9609 55.9805 38.543 55.9805 39.1289C55.9805 39.7617 55.8203 40.3555 55.5 40.9102C55.1875 41.4648 54.6992 41.9141 54.0352 42.2578C54.7617 42.7578 55.3359 43.3711 55.7578 44.0977C56.1797 44.8164 56.4805 45.5703 56.6602 46.3594C56.8398 47.1484 56.9297 47.875 56.9297 48.5391C56.9297 48.9922 56.8945 49.3984 56.8242 49.7578C56.7539 50.1172 56.625 50.3906 56.4375 50.5781C56.2578 50.7578 56.0352 50.8789 55.7695 50.9414C55.5039 50.9961 55.2031 51.0234 54.8672 51.0234ZM49.5352 40.8164C49.957 40.8164 50.3242 40.5664 50.6367 40.0664C50.957 39.5586 51.1172 39.0078 51.1172 38.4141C51.1172 38.0312 51.0312 37.6641 50.8594 37.3125C50.6953 36.9609 50.418 36.6758 50.0273 36.457C49.6367 36.2383 49.1094 36.1289 48.4453 36.1289C48.4062 36.1289 48.3789 36.1406 48.3633 36.1641C48.3555 36.1875 48.3516 36.2266 48.3516 36.2812V36.8789C48.3516 37.5195 48.3828 38.1875 48.4453 38.8828C48.5078 39.3672 48.5977 39.75 48.7148 40.0312C48.8398 40.3125 48.9766 40.5156 49.125 40.6406C49.2734 40.7578 49.4102 40.8164 49.5352 40.8164ZM12.8672 79C11.7891 79 10.9375 78.5664 10.3125 77.6992C10.1562 77.4414 10.0234 77.3125 9.91406 77.3125C9.8125 77.3125 9.6875 77.4414 9.53906 77.6992C8.9375 78.5664 8.11328 79 7.06641 79C6.01172 79 5.10938 78.8164 4.35938 78.4492C3.61719 78.082 2.99609 77.582 2.49609 76.9492C2.00391 76.3086 1.61719 75.5742 1.33594 74.7461C1.05469 73.9102 0.855469 73.0195 0.738281 72.0742C0.621094 71.1289 0.5625 70.1758 0.5625 69.2148C0.5625 67.4648 0.695312 65.7227 0.960938 63.9883C1.08594 63.3477 1.47656 62.8906 2.13281 62.6172C2.79688 62.3359 3.55078 62.1953 4.39453 62.1953H4.98047C5.31641 62.1953 5.64062 62.2266 5.95312 62.2891C6.65625 62.4297 7.00781 62.9062 7.00781 63.7188V64.1172C7.00781 64.625 6.92578 65.5078 6.76172 66.7656C6.53516 68.6406 6.42188 69.9492 6.42188 70.6914C6.42188 71.3789 6.46875 71.9414 6.5625 72.3789C6.65625 72.8164 6.76953 73.1406 6.90234 73.3516C7.04297 73.5547 7.17578 73.6562 7.30078 73.6562C7.53516 73.6562 7.74609 73.3516 7.93359 72.7422C8.12109 72.125 8.21484 71.1914 8.21484 69.9414C8.21484 69.418 8.17188 68.7578 8.08594 67.9609C8.02344 67.2891 7.99219 66.7773 7.99219 66.4258C7.99219 66.082 8.15625 65.8242 8.48438 65.6523C8.82031 65.4805 9.17578 65.3945 9.55078 65.3945C9.94141 65.3945 10.3008 65.4883 10.6289 65.6758C10.9648 65.8555 11.1328 66.1289 11.1328 66.4961C11.1328 66.8164 11.125 67.1094 11.1094 67.375C11.0938 67.6719 11.0859 67.9961 11.0859 68.3477C11.0859 69.5352 11.1484 70.5234 11.2734 71.3125C11.3984 72.1016 11.5508 72.6914 11.7305 73.082C11.918 73.4648 12.1055 73.6562 12.293 73.6562C12.457 73.6562 12.6172 73.4805 12.7734 73.1289C12.9375 72.7773 13.0195 72.2266 13.0195 71.4766C13.0195 70.6094 12.918 69.5156 12.7148 68.1953C12.5117 66.8672 12.2773 65.5078 12.0117 64.1172C11.9727 63.9062 11.9531 63.7148 11.9531 63.543C11.9531 62.8242 12.2891 62.4023 12.9609 62.2773C13.25 62.2227 13.5547 62.1953 13.875 62.1953H14.543C15.3711 62.1953 16.1289 62.3242 16.8164 62.582C17.5039 62.832 17.9219 63.2734 18.0703 63.9062C18.5234 66.3047 18.75 68.4648 18.75 70.3867C18.75 72.8555 18.3594 74.832 17.5781 76.3164C16.625 78.1055 15.0547 79 12.8672 79ZM27.457 78.9883H26.8008C25.5977 78.9883 24.5586 78.7344 23.6836 78.2266C22.8086 77.7188 22.0898 77.0469 21.5273 76.2109C20.9648 75.375 20.5469 74.4492 20.2734 73.4336C20.0078 72.418 19.875 71.4023 19.875 70.3867C19.875 67.957 20.3945 66.0273 21.4336 64.5977C22.5977 62.9961 24.3945 62.1953 26.8242 62.1953H27.5039C29.9336 62.1953 31.7305 62.9961 32.8945 64.5977C33.9336 66.0273 34.4531 67.957 34.4531 70.3867C34.4531 71.7773 34.2148 73.1328 33.7383 74.4531C33.2617 75.7656 32.5078 76.8438 31.4766 77.6875C30.4453 78.5234 29.1055 78.957 27.457 78.9883ZM27.1641 72.8945C27.6328 72.8945 28.0352 72.5234 28.3711 71.7812C28.7148 71.0391 28.8867 70.0938 28.8867 68.9453C28.8867 68.1562 28.8008 67.5 28.6289 66.9766C28.4648 66.4531 28.25 66.0625 27.9844 65.8047C27.7188 65.5391 27.4414 65.4062 27.1523 65.4062C26.8633 65.4062 26.5859 65.5391 26.3203 65.8047C26.0625 66.0625 25.8516 66.457 25.6875 66.9883C25.5234 67.5117 25.4414 68.168 25.4414 68.957C25.4414 69.8945 25.5273 70.6523 25.6992 71.2305C25.8789 71.8086 26.1016 72.2305 26.3672 72.4961C26.6328 72.7617 26.8984 72.8945 27.1641 72.8945ZM43.2773 78.9883H42.6211C41.418 78.9883 40.3789 78.7344 39.5039 78.2266C38.6289 77.7188 37.9102 77.0469 37.3477 76.2109C36.7852 75.375 36.3672 74.4492 36.0938 73.4336C35.8281 72.418 35.6953 71.4023 35.6953 70.3867C35.6953 67.957 36.2148 66.0273 37.2539 64.5977C38.418 62.9961 40.2148 62.1953 42.6445 62.1953H43.3242C45.7539 62.1953 47.5508 62.9961 48.7148 64.5977C49.7539 66.0273 50.2734 67.957 50.2734 70.3867C50.2734 71.7773 50.0352 73.1328 49.5586 74.4531C49.082 75.7656 48.3281 76.8438 47.2969 77.6875C46.2656 78.5234 44.9258 78.957 43.2773 78.9883ZM42.9844 72.8945C43.4531 72.8945 43.8555 72.5234 44.1914 71.7812C44.5352 71.0391 44.707 70.0938 44.707 68.9453C44.707 68.1562 44.6211 67.5 44.4492 66.9766C44.2852 66.4531 44.0703 66.0625 43.8047 65.8047C43.5391 65.5391 43.2617 65.4062 42.9727 65.4062C42.6836 65.4062 42.4062 65.5391 42.1406 65.8047C41.8828 66.0625 41.6719 66.457 41.5078 66.9883C41.3438 67.5117 41.2617 68.168 41.2617 68.957C41.2617 69.8945 41.3477 70.6523 41.5195 71.2305C41.6992 71.8086 41.9219 72.2305 42.1875 72.4961C42.4531 72.7617 42.7188 72.8945 42.9844 72.8945ZM56.1094 79H53.8711C53.2227 79 52.7617 78.8164 52.4883 78.4492C52.2148 78.0742 52.0508 77.5156 51.9961 76.7734C51.7852 74.3281 51.6797 71.9141 51.6797 69.5312C51.6797 67.9219 51.7266 66.25 51.8203 64.5156C51.8438 64.0938 51.9375 63.707 52.1016 63.3555C52.2656 63.0039 52.5039 62.7227 52.8164 62.5117C53.1289 62.3008 53.5117 62.1953 53.9648 62.1953L56.4258 62.1836C58.4883 62.1836 60.1797 62.2852 61.5 62.4883C62.3359 62.6289 62.832 63.0703 62.9883 63.8125C63.0586 64.1562 63.0938 64.5273 63.0938 64.9258C63.0938 65.4961 62.9531 65.8906 62.6719 66.1094C62.3906 66.3281 62.0078 66.4375 61.5234 66.4375C61.1484 66.4375 60.7188 66.3906 60.2344 66.2969C59.7578 66.2031 59.2461 66.0938 58.6992 65.9688L58.6523 65.957C58.418 65.9023 58.2266 65.875 58.0781 65.875C57.8125 65.875 57.6367 65.9453 57.5508 66.0859C57.4727 66.2266 57.4336 66.4258 57.4336 66.6836C57.4336 66.8711 57.4453 67.0859 57.4688 67.3281C57.5469 68.3516 57.6406 69.0703 57.75 69.4844C57.8672 69.8984 58.0039 70.1055 58.1602 70.1055C58.2852 70.1055 58.418 70.0156 58.5586 69.8359C58.707 69.6562 58.8711 69.4375 59.0508 69.1797C59.2305 68.9141 59.4297 68.6445 59.6484 68.3711C59.8672 68.0977 60.1016 67.8672 60.3516 67.6797C60.6094 67.4922 60.8867 67.3984 61.1836 67.3984C61.4961 67.3984 61.7539 67.4961 61.957 67.6914C62.1602 67.8789 62.3125 68.1289 62.4141 68.4414C62.5234 68.7539 62.5781 69.0859 62.5781 69.4375C62.5781 70.0078 62.3711 70.5312 61.957 71.0078C61.5508 71.4766 60.9375 71.7734 60.1172 71.8984C59.6094 71.9531 59.2109 71.9805 58.9219 71.9805H58.8164C58.5664 71.9805 58.3867 71.9961 58.2773 72.0273C58.1758 72.0508 58.125 72.1406 58.125 72.2969C58.125 72.4688 58.168 72.7461 58.2539 73.1289L58.3828 73.7617C58.6094 74.9336 58.8438 76.1094 59.0859 77.2891C59.1094 77.4297 59.1367 77.5664 59.168 77.6992C59.1836 77.7852 59.1914 77.8633 59.1914 77.9336C59.1914 78.2773 59.0391 78.5234 58.7344 78.6719C58.4297 78.8203 58.0391 78.9141 57.5625 78.9531C57.0938 78.9844 56.6094 79 56.1094 79ZM70.2773 78.9883H68.8711C68.1445 78.9883 67.4453 78.9336 66.7734 78.8242C66.1094 78.707 65.5547 78.4805 65.1094 78.1445C64.6641 77.8008 64.4141 77.293 64.3594 76.6211C64.25 75.168 64.168 73.8945 64.1133 72.8008C64.0586 71.707 64.0312 70.6172 64.0312 69.5312C64.0312 68.0781 64.082 66.4062 64.1836 64.5156C64.2852 63.2812 65.1602 62.5547 66.8086 62.3359C67.5117 62.2422 68.1875 62.1953 68.8359 62.1953C70.1875 62.1953 71.1562 62.2109 71.7422 62.2422C72.3359 62.2656 73.0469 62.3477 73.875 62.4883C74.7031 62.6289 75.1953 63.0703 75.3516 63.8125C75.4219 64.1562 75.457 64.5273 75.457 64.9258C75.457 65.4961 75.3164 65.8906 75.0352 66.1094C74.7617 66.3281 74.3828 66.4375 73.8984 66.4375C73.5156 66.4375 73.0781 66.3906 72.5859 66.2969C72.0938 66.1953 71.5664 66.0781 71.0039 65.9453C70.7305 65.8906 70.5352 65.8633 70.418 65.8633C70.0742 65.8633 69.8594 65.9883 69.7734 66.2383C69.6953 66.4883 69.6562 66.8203 69.6562 67.2344C69.6562 68.1484 69.668 68.8242 69.6914 69.2617C69.7148 69.6992 69.7891 69.918 69.9141 69.918C69.9844 69.918 70.0703 69.8516 70.1719 69.7188C70.2812 69.5859 70.4023 69.418 70.5352 69.2148C70.707 68.957 70.8984 68.6914 71.1094 68.418C71.3281 68.1367 71.5664 67.8984 71.8242 67.7031C72.0898 67.5 72.375 67.3984 72.6797 67.3984C72.9922 67.3984 73.25 67.4961 73.4531 67.6914C73.6641 67.8789 73.8203 68.1289 73.9219 68.4414C74.0234 68.7539 74.0742 69.0859 74.0742 69.4375C74.0742 70.0078 73.8672 70.5312 73.4531 71.0078C73.0469 71.4766 72.4336 71.7734 71.6133 71.8984C71.3867 71.9219 71.1914 71.9336 71.0273 71.9336C70.6758 71.9336 70.4141 71.9102 70.2422 71.8633C70.1328 71.8398 70.043 71.8281 69.9727 71.8281C69.8789 71.8281 69.8164 71.8633 69.7852 71.9336C69.7539 71.9961 69.7383 72.1289 69.7383 72.332C69.7383 72.5742 69.75 72.9375 69.7734 73.4219C69.8047 74.1562 69.9961 74.5234 70.3477 74.5234C70.5117 74.5234 70.6992 74.4688 70.9102 74.3594C71.1289 74.2422 71.3711 74.1016 71.6367 73.9375C72.0195 73.6875 72.4375 73.4531 72.8906 73.2344C73.3516 73.0078 73.8477 72.8945 74.3789 72.8945C74.7148 72.8945 74.9766 73.0391 75.1641 73.3281C75.3594 73.6094 75.457 74.1367 75.457 74.9102C75.457 75.8555 75.3359 76.6016 75.0938 77.1484C74.8594 77.6953 74.5195 78.1016 74.0742 78.3672C73.6289 78.6328 73.0859 78.8047 72.4453 78.8828C71.8047 78.9531 71.082 78.9883 70.2773 78.9883ZM88.9688 79.0234C88.7734 79.0234 88.5664 79.0195 88.3477 79.0117C88.1289 79.0039 87.8984 79 87.6562 79H86.8359C86.5156 79 86.2109 78.9688 85.9219 78.9062C85.6328 78.8438 85.3984 78.7109 85.2188 78.5078C85.0391 78.2969 84.9453 77.9805 84.9375 77.5586V77.2656C84.9375 76.7734 84.957 76.1445 84.9961 75.3789C85.043 74.5508 85.0664 73.8438 85.0664 73.2578C85.0664 72.3438 84.9258 71.6133 84.6445 71.0664C84.4336 70.668 84.1562 70.4688 83.8125 70.4688C83.6719 70.4688 83.5352 70.5117 83.4023 70.5977C83.2773 70.6758 83.1719 70.8203 83.0859 71.0312C83.0078 71.2344 82.9688 71.5234 82.9688 71.8984C82.9844 72.7422 83.0391 73.5547 83.1328 74.3359C83.2344 75.1094 83.3438 75.8398 83.4609 76.5273C83.5859 77.3164 83.6484 77.7812 83.6484 77.9219C83.6484 78.2656 83.5273 78.5156 83.2852 78.6719C83.0508 78.8203 82.7305 78.9141 82.3242 78.9531C81.9258 78.9844 81.4766 79 80.9766 79H78.7383C78.0898 79 77.6328 78.8164 77.3672 78.4492C77.1016 78.0742 76.9531 77.5156 76.9219 76.7734C76.8203 75 76.7695 73.2773 76.7695 71.6055C76.7695 69.3164 76.8633 66.9531 77.0508 64.5156C77.082 64.0938 77.1836 63.707 77.3555 63.3555C77.5352 63.0039 77.7852 62.7227 78.1055 62.5117C78.4258 62.3008 78.8125 62.1953 79.2656 62.1953H84.1992C85.1367 62.1953 85.9688 62.3398 86.6953 62.6289C87.4297 62.918 88.0469 63.3047 88.5469 63.7891C89.0469 64.2656 89.4258 64.7969 89.6836 65.3828C89.9492 65.9609 90.082 66.543 90.082 67.1289C90.082 67.7617 89.9219 68.3555 89.6016 68.9102C89.2891 69.4648 88.8008 69.9141 88.1367 70.2578C88.8633 70.7578 89.4375 71.3711 89.8594 72.0977C90.2812 72.8164 90.582 73.5703 90.7617 74.3594C90.9414 75.1484 91.0312 75.875 91.0312 76.5391C91.0312 76.9922 90.9961 77.3984 90.9258 77.7578C90.8555 78.1172 90.7266 78.3906 90.5391 78.5781C90.3594 78.7578 90.1367 78.8789 89.8711 78.9414C89.6055 78.9961 89.3047 79.0234 88.9688 79.0234ZM83.6367 68.8164C84.0586 68.8164 84.4258 68.5664 84.7383 68.0664C85.0586 67.5586 85.2188 67.0078 85.2188 66.4141C85.2188 66.0312 85.1328 65.6641 84.9609 65.3125C84.7969 64.9609 84.5195 64.6758 84.1289 64.457C83.7383 64.2383 83.2109 64.1289 82.5469 64.1289C82.5078 64.1289 82.4805 64.1406 82.4648 64.1641C82.457 64.1875 82.4531 64.2266 82.4531 64.2812V64.8789C82.4531 65.5195 82.4844 66.1875 82.5469 66.8828C82.6094 67.3672 82.6992 67.75 82.8164 68.0312C82.9414 68.3125 83.0781 68.5156 83.2266 68.6406C83.375 68.7578 83.5117 68.8164 83.6367 68.8164Z" fill="#FFCA72"/>
</svg>
