<svg width="26" height="26" viewBox="0 0 26 26" fill="none" xmlns="http://www.w3.org/2000/svg">
<g id="pets">
<mask id="mask0_1_30" style="mask-type:alpha" maskUnits="userSpaceOnUse" x="0" y="0" width="26" height="26">
<rect id="Bounding box" x="0.258667" y="0.4198" width="25" height="25" fill="#D9D9D9"/>
</mask>
<g mask="url(#mask0_1_30)">
<path id="pets_2" d="M4.94621 13.05C4.21704 13.05 3.60072 12.7983 3.09725 12.2948C2.59378 11.7914 2.34204 11.175 2.34204 10.4459C2.34204 9.71672 2.59378 9.1004 3.09725 8.59692C3.60072 8.09345 4.21704 7.84172 4.94621 7.84172C5.67537 7.84172 6.29169 8.09345 6.79517 8.59692C7.29864 9.1004 7.55037 9.71672 7.55037 10.4459C7.55037 11.175 7.29864 11.7914 6.79517 12.2948C6.29169 12.7983 5.67537 13.05 4.94621 13.05ZM9.63371 8.88338C8.90454 8.88338 8.28822 8.63165 7.78475 8.12817C7.28128 7.6247 7.02954 7.00838 7.02954 6.27922C7.02954 5.55005 7.28128 4.93373 7.78475 4.43026C8.28822 3.92678 8.90454 3.67505 9.63371 3.67505C10.3629 3.67505 10.9792 3.92678 11.4827 4.43026C11.9861 4.93373 12.2379 5.55005 12.2379 6.27922C12.2379 7.00838 11.9861 7.6247 11.4827 8.12817C10.9792 8.63165 10.3629 8.88338 9.63371 8.88338ZM15.8837 8.88338C15.1545 8.88338 14.5382 8.63165 14.0348 8.12817C13.5313 7.6247 13.2795 7.00838 13.2795 6.27922C13.2795 5.55005 13.5313 4.93373 14.0348 4.43026C14.5382 3.92678 15.1545 3.67505 15.8837 3.67505C16.6129 3.67505 17.2292 3.92678 17.7327 4.43026C18.2361 4.93373 18.4879 5.55005 18.4879 6.27922C18.4879 7.00838 18.2361 7.6247 17.7327 8.12817C17.2292 8.63165 16.6129 8.88338 15.8837 8.88338ZM20.5712 13.05C19.842 13.05 19.2257 12.7983 18.7223 12.2948C18.2188 11.7914 17.967 11.175 17.967 10.4459C17.967 9.71672 18.2188 9.1004 18.7223 8.59692C19.2257 8.09345 19.842 7.84172 20.5712 7.84172C21.3004 7.84172 21.9167 8.09345 22.4202 8.59692C22.9236 9.1004 23.1754 9.71672 23.1754 10.4459C23.1754 11.175 22.9236 11.7914 22.4202 12.2948C21.9167 12.7983 21.3004 13.05 20.5712 13.05ZM7.18579 23.4667C6.40454 23.4667 5.74916 23.1672 5.21965 22.5683C4.69013 21.9693 4.42537 21.2619 4.42537 20.4459C4.42537 19.5431 4.73353 18.7532 5.34985 18.0761C5.96617 17.399 6.57815 16.7306 7.18579 16.0709C7.68926 15.5327 8.12329 14.9468 8.48787 14.3131C8.85246 13.6794 9.28649 13.0848 9.78996 12.5292C10.1719 12.0778 10.6146 11.7046 11.1181 11.4094C11.6216 11.1143 12.1684 10.9667 12.7587 10.9667C13.349 10.9667 13.8959 11.1056 14.3993 11.3834C14.9028 11.6612 15.3455 12.0257 15.7275 12.4771C16.2136 13.0327 16.6433 13.6316 17.0165 14.274C17.3898 14.9164 17.8282 15.5153 18.3316 16.0709C18.9393 16.7306 19.5512 17.399 20.1676 18.0761C20.7839 18.7532 21.092 19.5431 21.092 20.4459C21.092 21.2619 20.8273 21.9693 20.2978 22.5683C19.7683 23.1672 19.1129 23.4667 18.3316 23.4667C17.3941 23.4667 16.4653 23.3886 15.5452 23.2323C14.625 23.0761 13.6962 22.998 12.7587 22.998C11.8212 22.998 10.8924 23.0761 9.97225 23.2323C9.05211 23.3886 8.12329 23.4667 7.18579 23.4667Z" fill="#410200"/>
</g>
</g>
</svg>
